# Blender v2.80 (sub 75) OBJ File: 'Forest.blendD379C932-11C9-4E09-B687-B4B439D4B66E.blend'
# www.blender.org
mtllib blue_flower.mtl
o f4_Cylinder.043
v -35.058609 -8.701041 -1.426826
v -35.319386 -7.760839 -1.386804
v -35.048405 -8.701121 -1.470230
v -35.316574 -7.757784 -1.404825
v -35.011200 -8.701308 -1.493270
v -35.304829 -7.750705 -1.413913
v -34.968758 -8.701485 -1.482454
v -35.290993 -7.743722 -1.408751
v -34.945965 -8.701554 -1.444113
v -35.283207 -7.740938 -1.392357
v -34.956211 -8.701485 -1.400702
v -35.286060 -7.744007 -1.374330
v -34.993458 -8.701308 -1.377656
v -35.297871 -7.751127 -1.365232
v -35.035858 -8.701121 -1.388479
v -35.311672 -7.758097 -1.370399
v -35.032005 -8.452124 -1.430909
v -35.075897 -8.205858 -1.424173
v -35.172867 -7.953027 -1.409291
v -35.167385 -7.949981 -1.433784
v -35.069229 -8.204317 -1.454910
v -35.023529 -8.451415 -1.467986
v -35.148914 -7.944199 -1.446415
v -35.044765 -8.201056 -1.470972
v -34.992344 -8.449702 -1.487590
v -35.128212 -7.939028 -1.439795
v -35.016758 -8.197915 -1.462963
v -34.956718 -8.447990 -1.478239
v -35.117470 -7.937537 -1.417792
v -35.001633 -8.196754 -1.435570
v -34.937519 -8.447282 -1.445409
v -35.123051 -7.940649 -1.393284
v -35.008327 -8.198318 -1.404829
v -34.945992 -8.447990 -1.408333
v -35.141617 -7.946494 -1.380638
v -35.032902 -8.201675 -1.388749
v -34.977173 -8.449702 -1.388729
v -35.162224 -7.951602 -1.387273
v -35.060886 -8.204794 -1.396763
v -35.012802 -8.451415 -1.398080
v -35.370640 -7.939552 -1.378939
v -35.291138 -7.832329 -1.533140
v -35.199417 -7.832329 -1.350978
v -35.327271 -7.801441 -1.216040
v -35.525597 -7.832329 -1.300920
v -35.492725 -7.832329 -1.502202
v -35.215683 -7.658836 -1.456958
v -35.265606 -7.689724 -1.247091
v -35.450142 -7.658836 -1.224738
v -35.541859 -7.658836 -1.406900
v -35.396957 -7.658836 -1.550422
v -35.370640 -7.551613 -1.378939
v -35.260143 -8.076233 -1.569679
v -35.184689 -7.764647 -1.493497
v -35.159897 -8.098070 -1.572255
v -35.128670 -8.026269 -1.540726
v -35.268436 -7.929918 -1.546625
v -35.490753 -7.929918 -1.512506
v -35.358948 -8.143267 -1.591843
v -35.457466 -8.143267 -1.576724
v -35.625957 -7.956428 -1.306267
v -35.580742 -7.956428 -1.583129
v -35.654957 -8.032796 -1.459633
v -35.644833 -8.032796 -1.521625
v -35.399513 -7.928910 -1.120273
v -35.616016 -7.928910 -1.231901
v -35.522446 -7.989720 -1.115785
v -35.600624 -7.989720 -1.156093
v -35.131386 -7.955656 -1.280810
v -35.298557 -7.955656 -1.115232
v -35.154125 -8.009522 -1.200026
v -35.218704 -8.009522 -1.136063
v -35.206116 -7.898021 -1.146102
v -35.098351 -7.719831 -1.123428
v -35.143017 -7.876710 -1.132126
v -35.088203 -7.786077 -1.120593
v -35.513172 -7.881966 -1.198391
v -35.407864 -7.639837 -1.092070
v -35.450577 -7.821777 -1.115889
v -35.413700 -7.736991 -1.078658
v -35.605759 -7.818777 -1.149746
v -35.626263 -7.600049 -1.283358
v -35.641422 -7.728306 -1.110775
v -35.649071 -7.646712 -1.160617
v -35.224892 -7.645152 -1.578494
v -35.466625 -7.477882 -1.456784
v -35.331299 -7.573085 -1.648620
v -35.439850 -7.497972 -1.593967
v -35.206150 -7.663200 -1.106963
v -35.336388 -7.491947 -1.270450
v -35.239182 -7.575164 -1.055880
v -35.300179 -7.494959 -1.132448
v -35.506958 -7.600624 -1.149793
v -35.406353 -7.464939 -1.344925
v -35.581673 -7.435532 -1.222213
v -35.550323 -7.393255 -1.283012
v -35.629910 -7.608860 -1.481961
v -35.431995 -7.608860 -1.677989
v -35.603077 -7.619896 -1.619908
v -35.533653 -7.619896 -1.688668
v -35.372044 -7.890706 -1.603899
v -35.516048 -7.654611 -1.627418
v -35.504341 -7.869821 -1.677283
v -35.561317 -7.776413 -1.686588
v -35.569355 -7.883872 -1.404444
v -35.627655 -7.678021 -1.291366
v -35.708202 -7.864278 -1.318201
v -35.730999 -7.783783 -1.273984
v -35.086193 -7.886113 -1.440623
v -35.102459 -7.712620 -1.546602
v -35.054688 -7.966207 -1.522119
v -35.062752 -7.880155 -1.574685
vn -0.7832 -0.5708 -0.2463
vn -0.4902 -0.2550 -0.8335
vn 0.2136 0.3245 -0.9214
vn 0.6838 0.6252 -0.3762
vn 0.7561 0.6052 0.2490
vn 0.4676 0.3077 0.8287
vn -0.4716 0.8786 0.0748
vn -0.7145 -0.5853 0.3832
vn -0.2361 -0.2626 0.9356
vn -0.0045 -1.0000 0.0004
vn -0.2466 0.0600 0.9673
vn -0.2509 -0.0563 0.9664
vn -0.2581 -0.1403 0.9559
vn -0.8556 0.0998 0.5079
vn -0.8493 -0.1683 0.5004
vn -0.8177 -0.3446 0.4612
vn 0.5262 0.0034 0.8504
vn 0.5238 0.1189 0.8435
vn 0.5185 0.1936 0.8329
vn 0.9727 -0.0323 0.2296
vn 0.9469 0.2336 0.2208
vn 0.8970 0.3861 0.2150
vn 0.8591 -0.0323 -0.5108
vn 0.8371 0.2336 -0.4946
vn 0.7995 0.3887 -0.4579
vn 0.2470 0.0034 -0.9690
vn 0.2468 0.1180 -0.9619
vn 0.2498 0.1924 -0.9490
vn -0.5253 0.0599 -0.8488
vn -0.5292 -0.0550 -0.8467
vn -0.5311 -0.1354 -0.8364
vn -0.9686 0.0997 -0.2279
vn -0.9606 -0.1659 -0.2228
vn -0.9168 -0.3359 -0.2158
vn 0.5422 -0.7947 -0.2730
vn -0.0921 -0.7947 -0.6000
vn 0.3836 -0.7523 0.5357
vn -0.1703 -0.7288 0.6632
vn -0.5991 -0.7947 -0.0978
vn -0.1490 -0.1876 -0.9709
vn 0.8773 -0.1876 -0.4417
vn 0.6912 -0.1875 0.6979
vn -0.3489 -0.2454 0.9045
vn -0.9694 -0.1876 -0.1583
vn 0.4501 0.1876 -0.8730
vn 0.9343 0.2455 0.2584
vn 0.1490 0.1876 0.9709
vn -0.8773 0.1876 0.4417
vn -0.6912 0.1876 -0.6979
vn 0.2782 0.7947 -0.5396
vn 0.6343 0.7288 0.2581
vn 0.2019 0.7523 0.6272
vn -0.5422 0.7947 0.2730
vn -0.4272 0.7946 -0.4313
vn 0.2446 0.1740 -0.9539
vn 0.0255 0.2316 -0.9725
vn -0.1509 0.1008 -0.9834
vn -0.1463 0.2641 -0.9533
vn -0.7688 0.6271 -0.1255
vn -0.8091 0.5727 -0.1321
vn -0.3746 0.6832 0.6268
vn -0.3254 0.7042 0.6310
vn 0.6377 0.6154 0.4633
vn 0.5580 0.6094 0.5633
vn -0.5511 0.2313 0.8017
vn -0.2189 0.0082 0.9757
vn -0.9229 0.2906 0.2525
vn -0.8321 0.1246 0.5405
vn 0.8447 0.3345 0.4179
vn 0.9300 0.2511 0.2683
vn 0.5843 0.8102 0.0470
vn 0.5654 0.8247 -0.0104
vn -0.8696 -0.2618 0.4185
vn -0.8657 -0.4509 0.2173
vn -0.8379 -0.1380 -0.5280
vn -0.5439 -0.5311 -0.6497
vn 0.2799 0.9175 0.2826
vn -0.0972 0.9904 -0.0981
vn 0.5326 0.2441 -0.8104
vn 0.4995 0.2212 -0.8376
vn -0.8067 0.0922 -0.5837
vn -0.4667 0.3206 -0.8242
vn 0.6771 0.4288 0.5980
vn 0.9639 0.1987 0.1774
vn -0.7880 -0.5749 -0.2204
vn -0.4907 -0.2553 -0.8331
vn 0.1909 0.3102 -0.9313
vn 0.6631 0.6195 -0.4201
vn 0.7608 0.6091 0.2242
vn 0.4605 0.3025 0.8345
vn -0.4717 0.8786 0.0752
vn -0.4718 0.8785 0.0754
vn -0.4718 0.8785 0.0749
vn -0.4717 0.8785 0.0751
vn -0.6956 -0.5799 0.4240
vn -0.2236 -0.2547 0.9408
vn -0.0045 -1.0000 0.0006
vn -0.0044 -1.0000 0.0008
vn -0.0044 -1.0000 0.0010
vn -0.0045 -1.0000 0.0005
vn -0.2561 0.0590 0.9649
vn -0.2689 -0.0576 0.9614
vn -0.2707 -0.1441 0.9518
vn -0.8599 0.0986 0.5009
vn -0.8621 -0.1667 0.4786
vn -0.8359 -0.3457 0.4264
vn 0.5321 0.0040 0.8467
vn 0.5321 0.1196 0.8382
vn 0.5108 0.1910 0.8382
vn 0.9745 -0.0312 0.2221
vn 0.9475 0.2335 0.2182
vn 0.8884 0.3843 0.2511
vn 0.8631 -0.0312 -0.5041
vn 0.8472 0.2326 -0.4776
vn 0.8169 0.3897 -0.4252
vn 0.2537 0.0040 -0.9673
vn 0.2607 0.1190 -0.9581
vn 0.2545 0.1938 -0.9474
vn -0.5336 0.0590 -0.8437
vn -0.5428 -0.0560 -0.8380
vn -0.5302 -0.1351 -0.8371
vn -0.9705 0.0987 -0.2200
vn -0.9620 -0.1656 -0.2170
vn -0.9099 -0.3345 -0.2453
vn 0.1195 0.3552 -0.9271
vn 0.3593 0.2398 -0.9019
vn -0.8092 0.5725 -0.1321
vn -0.3138 0.7287 0.6086
vn -0.3253 0.7043 0.6310
vn 0.6047 0.5116 0.6105
vn 0.5580 0.6093 0.5634
vn -0.2225 0.3731 0.9007
vn -0.9229 0.2905 0.2525
vn -0.8321 0.1246 0.5404
vn 0.8447 0.3344 0.4179
vn 0.9301 0.2510 0.2683
vn 0.5842 0.8102 0.0470
vn -0.8379 -0.1381 -0.5280
vn -0.5438 -0.5312 -0.6497
vn 0.6772 0.4288 0.5980
vn 0.9639 0.1987 0.1773
usemtl GreenLeaves
s off
f 19//1 4//1 20//1
f 20//2 6//2 23//2
f 23//3 8//3 26//3
f 26//4 10//4 29//4
f 10//5 32//5 29//5
f 12//6 35//6 32//6
f 10//7 8//7 4//7
f 16//8 19//8 38//8
f 14//9 38//9 35//9
f 11//10 13//10 15//10
f 13//11 40//11 15//11
f 36//12 40//12 37//12
f 35//13 39//13 36//13
f 15//14 17//14 1//14
f 39//15 17//15 40//15
f 38//16 18//16 39//16
f 11//17 37//17 13//17
f 33//18 37//18 34//18
f 32//19 36//19 33//19
f 9//20 34//20 11//20
f 30//21 34//21 31//21
f 29//22 33//22 30//22
f 28//23 9//23 7//23
f 28//24 30//24 31//24
f 27//25 29//25 30//25
f 25//26 7//26 5//26
f 25//27 27//27 28//27
f 24//28 26//28 27//28
f 22//29 5//29 3//29
f 22//30 24//30 25//30
f 21//31 23//31 24//31
f 17//32 3//32 1//32
f 17//33 21//33 22//33
f 18//34 20//34 21//34
usemtl blue
f 41//35 42//35 43//35
f 42//36 41//36 46//36
f 41//37 43//37 44//37
f 41//38 44//38 45//38
f 41//39 45//39 46//39
f 42//40 46//40 51//40
f 43//41 42//41 47//41
f 44//42 43//42 48//42
f 45//43 44//43 49//43
f 46//44 45//44 50//44
f 42//45 51//45 47//45
f 43//46 47//46 48//46
f 44//47 48//47 49//47
f 45//48 49//48 50//48
f 46//49 50//49 51//49
f 47//50 51//50 52//50
f 48//51 47//51 52//51
f 49//52 48//52 52//52
f 50//53 49//53 52//53
f 51//54 50//54 52//54
f 42//55 54//55 53//55
f 54//56 55//56 53//56
f 42//57 58//57 46//57
f 58//58 59//58 60//58
f 46//59 61//59 45//59
f 62//60 63//60 61//60
f 45//61 65//61 44//61
f 66//62 67//62 65//62
f 44//63 69//63 43//63
f 70//64 71//64 69//64
f 48//65 73//65 74//65
f 74//66 75//66 76//66
f 49//67 77//67 78//67
f 78//68 79//68 80//68
f 45//69 82//69 81//69
f 81//70 84//70 83//70
f 52//71 85//71 86//71
f 85//72 88//72 86//72
f 48//73 90//73 52//73
f 89//74 92//74 90//74
f 49//75 94//75 52//75
f 93//76 96//76 94//76
f 51//77 97//77 50//77
f 98//78 99//78 97//78
f 51//79 101//79 102//79
f 102//80 103//80 104//80
f 50//81 105//81 106//81
f 106//82 107//82 108//82
f 47//83 109//83 110//83
f 110//84 111//84 112//84
usemtl GreenLeaves
f 19//85 2//85 4//85
f 20//86 4//86 6//86
f 23//87 6//87 8//87
f 26//88 8//88 10//88
f 10//89 12//89 32//89
f 12//90 14//90 35//90
f 6//91 4//91 8//91
f 4//92 2//92 10//92
f 2//93 16//93 12//93
f 16//94 14//94 12//94
f 12//93 10//93 2//93
f 16//95 2//95 19//95
f 14//96 16//96 38//96
f 15//97 1//97 11//97
f 1//98 3//98 7//98
f 3//99 5//99 7//99
f 7//98 9//98 1//98
f 9//100 11//100 1//100
f 13//101 37//101 40//101
f 36//102 39//102 40//102
f 35//103 38//103 39//103
f 15//104 40//104 17//104
f 39//105 18//105 17//105
f 38//106 19//106 18//106
f 11//107 34//107 37//107
f 33//108 36//108 37//108
f 32//109 35//109 36//109
f 9//110 31//110 34//110
f 30//111 33//111 34//111
f 29//112 32//112 33//112
f 28//113 31//113 9//113
f 28//114 27//114 30//114
f 27//115 26//115 29//115
f 25//116 28//116 7//116
f 25//117 24//117 27//117
f 24//118 23//118 26//118
f 22//119 25//119 5//119
f 22//120 21//120 24//120
f 21//121 20//121 23//121
f 17//122 22//122 3//122
f 17//123 18//123 21//123
f 18//124 19//124 20//124
usemtl blue
f 42//125 47//125 54//125
f 54//126 56//126 55//126
f 42//57 57//57 58//57
f 58//58 57//58 59//58
f 46//59 62//59 61//59
f 62//127 64//127 63//127
f 45//128 66//128 65//128
f 66//129 68//129 67//129
f 44//130 70//130 69//130
f 70//131 72//131 71//131
f 48//132 44//132 73//132
f 74//66 73//66 75//66
f 49//133 45//133 77//133
f 78//134 77//134 79//134
f 45//135 50//135 82//135
f 81//136 82//136 84//136
f 52//137 47//137 85//137
f 85//72 87//72 88//72
f 48//73 89//73 90//73
f 89//74 91//74 92//74
f 49//138 93//138 94//138
f 93//139 95//139 96//139
f 51//77 98//77 97//77
f 98//78 100//78 99//78
f 51//79 42//79 101//79
f 102//80 101//80 103//80
f 50//81 46//81 105//81
f 106//82 105//82 107//82
f 47//140 43//140 109//140
f 110//141 109//141 111//141
