# Blender v2.80 (sub 75) OBJ File: 'Forest.blendD379C932-11C9-4E09-B687-B4B439D4B66E.blend'
# www.blender.org
mtllib green_small_bush.mtl
o p4-green_Icosphere.031
v -33.767147 -6.639952 -17.577131
v -34.183681 -7.541210 -18.693115
v -34.811291 -7.180699 -16.709360
v -32.628113 -7.812583 -16.092455
v -31.674461 -7.391381 -16.509354
v -32.137112 -7.866189 -17.999659
v -34.502819 -8.120184 -17.311279
v -34.170063 -7.945336 -16.284878
v -32.846943 -8.348477 -16.562012
v -32.233139 -8.374966 -17.331963
v -33.516552 -8.762733 -18.041418
v -33.173409 -8.613775 -17.161028
v -34.636555 -6.823980 -17.233044
v -33.872414 -6.869792 -18.081800
v -34.573948 -7.212205 -17.696148
v -33.013531 -7.408309 -18.187376
v -31.988718 -6.991013 -17.663490
v -33.181011 -6.967543 -16.530153
v -34.249619 -7.202793 -16.229223
v -32.447369 -6.780893 -17.118448
v -32.052929 -7.337015 -16.381662
v -31.635462 -7.213246 -17.375063
vn -0.3206 0.8855 -0.3364
vn 0.2676 0.5779 -0.7710
vn -0.0676 0.9408 0.3322
vn -0.0023 0.9540 0.2998
vn 0.1787 0.9591 -0.2194
vn 0.4079 -0.2462 -0.8792
vn -0.9592 -0.1706 -0.2253
vn -0.1160 -0.0866 0.9895
vn 0.5251 -0.6720 0.5222
vn 0.9099 -0.3825 -0.1606
vn -0.6911 -0.5958 -0.4092
vn -0.8047 -0.4842 0.3434
vn -0.0388 -0.6495 0.7594
vn 0.5485 -0.6974 0.4613
vn 0.4872 -0.7270 -0.4839
vn -0.3617 -0.8857 0.2909
vn -0.3618 -0.8925 0.2693
vn -0.1646 -0.8655 0.4731
vn 0.2814 -0.9248 0.2562
vn 0.2565 -0.9645 0.0632
vn 0.6824 0.1584 -0.7137
vn 0.4869 0.8703 0.0742
vn 0.5084 0.8387 0.1955
vn 0.2808 0.8323 0.4779
vn 0.2039 0.8308 0.5179
vn 0.0424 0.4812 0.8756
vn 0.1239 0.5191 0.8457
vn -0.0944 0.9189 0.3831
vn -0.3484 0.8247 0.4455
vn 0.3412 0.2861 -0.8954
vn 0.2176 0.5102 -0.8321
vn 0.1539 0.8867 -0.4359
vn -0.9636 0.1259 -0.2358
vn -0.5913 0.5768 -0.5635
vn -0.5793 0.6791 -0.4509
vn 0.1295 -0.1537 -0.9796
vn -0.9330 -0.1999 -0.2992
vn -0.6475 -0.1257 0.7516
vn 0.3360 0.1583 0.9285
vn 0.8252 -0.5594 -0.0779
usemtl GreenLeaves
s off
f 1//1 14//1 13//1
f 2//2 14//2 16//2
f 1//3 13//3 18//3
f 1//4 18//4 20//4
f 1//5 20//5 17//5
f 16//6 11//6 2//6
f 15//7 7//7 3//7
f 19//8 8//8 4//8
f 5//9 4//9 9//9
f 6//10 5//10 10//10
f 2//11 11//11 7//11
f 3//12 7//12 8//12
f 4//13 8//13 9//13
f 5//14 9//14 10//14
f 6//15 10//15 11//15
f 7//16 11//16 12//16
f 8//17 7//17 12//17
f 9//18 8//18 12//18
f 10//19 9//19 12//19
f 11//20 10//20 12//20
f 17//21 22//21 6//21
f 17//22 20//22 22//22
f 20//23 5//23 22//23
f 20//24 21//24 5//24
f 20//25 18//25 21//25
f 18//26 4//26 21//26
f 18//27 19//27 4//27
f 18//28 13//28 19//28
f 13//29 3//29 19//29
f 16//30 17//30 6//30
f 16//31 14//31 17//31
f 14//32 1//32 17//32
f 13//33 15//33 3//33
f 13//34 14//34 15//34
f 14//35 2//35 15//35
f 16//36 6//36 11//36
f 15//37 2//37 7//37
f 19//38 3//38 8//38
f 5//39 21//39 4//39
f 6//40 22//40 5//40
