# Blender v2.80 (sub 75) OBJ File: 'Forest.blendD379C932-11C9-4E09-B687-B4B439D4B66E.blend'
# www.blender.org
mtllib green_round_bush.mtl
o p3-green_Icosphere.009
v -34.571724 -7.100622 -14.255764
v -35.007000 -8.442132 -14.658834
v -35.413536 -8.333775 -13.463082
v -32.615891 -7.839831 -11.847018
v -30.974548 -7.323445 -12.443441
v -30.247398 -8.144688 -14.096735
v -35.214108 -8.772951 -13.769843
v -34.934738 -8.486501 -12.678233
v -31.358307 -8.300404 -12.274209
v -30.850805 -8.758665 -13.395158
v -33.841953 -8.711559 -14.305254
v -33.761738 -8.754653 -13.547340
v -35.184635 -7.451642 -13.881076
v -34.575291 -7.208783 -14.705624
v -35.178234 -7.995180 -14.214965
v -33.269863 -7.505877 -14.495297
v -31.266153 -7.559117 -13.757944
v -33.762745 -6.991822 -12.516531
v -34.670551 -7.507044 -12.301796
v -33.046528 -7.119314 -13.173607
v -31.806839 -7.289149 -12.355984
v -30.321640 -7.648137 -13.385751
vn -0.5720 0.7986 -0.1875
vn 0.1393 -0.0862 -0.9865
vn -0.4252 0.8939 0.1419
vn 0.0838 0.9914 -0.1010
vn 0.1662 0.9618 -0.2176
vn 0.2262 -0.2555 -0.9400
vn -0.9304 -0.2152 -0.2968
vn -0.2511 -0.2875 0.9243
vn 0.1089 0.1280 0.9858
vn 0.8380 -0.4024 0.3686
vn -0.1021 -0.9243 -0.3678
vn -0.7430 -0.5757 0.3412
vn -0.0384 -0.7339 0.6782
vn 0.8409 -0.2469 0.4816
vn 0.1602 -0.8070 -0.5684
vn 0.0216 -0.9980 -0.0590
vn -0.0277 -0.9651 0.2604
vn 0.0142 -0.9499 0.3122
vn -0.0206 -0.9287 0.3703
vn 0.0016 -0.9984 -0.0569
vn 0.2838 0.7998 -0.5289
vn 0.1712 0.9639 -0.2039
vn 0.1701 0.9620 -0.2136
vn 0.0539 0.9908 0.1241
vn 0.1523 0.9880 -0.0257
vn 0.0363 0.6490 0.7599
vn -0.1009 0.5289 0.8427
vn -0.4535 0.8733 0.1782
vn -0.8795 0.3700 0.2993
vn 0.2404 0.7644 -0.5982
vn 0.2656 0.6914 -0.6718
vn 0.1678 0.9582 -0.2317
vn -0.9613 0.1359 -0.2396
vn -0.8070 0.3022 -0.5074
vn -0.7881 0.2546 -0.5604
vn 0.0875 -0.1955 -0.9768
vn -0.9470 -0.0473 -0.3177
vn -0.8509 0.0279 0.5245
vn 0.3911 0.2452 0.8871
vn 0.7119 -0.3444 0.6120
usemtl GreenLeaves
s off
f 1//1 14//1 13//1
f 2//2 14//2 16//2
f 1//3 13//3 18//3
f 1//4 18//4 20//4
f 1//5 20//5 17//5
f 16//6 11//6 2//6
f 3//7 2//7 7//7
f 19//8 8//8 4//8
f 21//9 9//9 5//9
f 22//10 10//10 6//10
f 2//11 11//11 7//11
f 3//12 7//12 8//12
f 4//13 8//13 9//13
f 5//14 9//14 10//14
f 6//15 10//15 11//15
f 7//16 11//16 12//16
f 8//17 7//17 12//17
f 9//18 8//18 12//18
f 10//19 9//19 12//19
f 11//20 10//20 12//20
f 17//21 22//21 6//21
f 17//22 20//22 22//22
f 20//23 5//23 22//23
f 20//24 21//24 5//24
f 20//25 18//25 21//25
f 18//26 4//26 21//26
f 18//27 19//27 4//27
f 18//28 13//28 19//28
f 13//29 3//29 19//29
f 16//30 17//30 6//30
f 16//31 14//31 17//31
f 14//32 1//32 17//32
f 13//33 15//33 3//33
f 13//34 14//34 15//34
f 14//35 2//35 15//35
f 16//36 6//36 11//36
f 3//37 15//37 2//37
f 19//38 3//38 8//38
f 21//39 4//39 9//39
f 22//40 5//40 10//40
