# Blender v2.80 (sub 75) OBJ File: ''
# www.blender.org
mtllib left_wall.mtl
o Cube
v -1.015892 -0.984267 -0.050795
v -1.015892 -0.984267 0.049213
v -1.015892 1.015892 -0.050795
v -1.015892 1.015892 0.049213
v 0.984267 -0.984267 -0.050795
v 0.984267 -0.984267 0.049213
v 0.984267 1.015892 -0.050795
v 0.984267 1.015892 0.049213
v 0.055346 -0.055346 0.002767
vt 0.375000 0.000000
vt 0.625000 0.000000
vt 0.625000 0.250000
vt 0.375000 0.250000
vt 0.375000 0.250000
vt 0.625000 0.250000
vt 0.625000 0.500000
vt 0.375000 0.500000
vt 0.625000 0.750000
vt 0.375000 0.750000
vt 0.625000 0.750000
vt 0.625000 1.000000
vt 0.375000 1.000000
vt 0.125000 0.500000
vt 0.375000 0.500000
vt 0.375000 0.750000
vt 0.125000 0.750000
vt 0.625000 0.500000
vt 0.875000 0.500000
vt 0.875000 0.750000
vn 0.0000 -0.0000 1.0000
vn 0.0000 -1.0000 0.0000
vn -1.0000 0.0000 0.0000
vn 0.0000 0.0000 -1.0000
vn 1.0000 0.0000 0.0000
vn 0.0000 1.0000 0.0000
usemtl Material
s off
f 1/1/1 5/2/1 7/3/1 3/4/1
f 4/5/2 3/6/2 7/7/2 8/8/2
f 8/8/3 7/7/3 5/9/3 6/10/3
f 6/10/4 2/11/4 4/12/4 8/13/4
f 2/14/5 1/15/5 3/16/5 4/17/5
f 6/18/6 5/19/6 1/20/6 2/11/6
l 3 9
o Cube.001
v 0.879205 -0.984267 -0.038081
v 0.979213 -0.984267 -0.038081
v 0.879205 1.015892 -0.038081
v 0.979213 1.015892 -0.038081
v 0.879205 -0.984267 -1.538200
v 0.979213 -0.984267 -1.538200
v 0.879205 1.015892 -1.538200
v 0.979213 1.015892 -1.538200
v 0.932767 -0.055346 -0.841510
vt 0.375000 0.000000
vt 0.625000 0.000000
vt 0.625000 0.250000
vt 0.375000 0.250000
vt 0.375000 0.250000
vt 0.625000 0.250000
vt 0.625000 0.500000
vt 0.375000 0.500000
vt 0.625000 0.750000
vt 0.375000 0.750000
vt 0.625000 0.750000
vt 0.625000 1.000000
vt 0.375000 1.000000
vt 0.125000 0.500000
vt 0.375000 0.500000
vt 0.375000 0.750000
vt 0.125000 0.750000
vt 0.625000 0.500000
vt 0.875000 0.500000
vt 0.875000 0.750000
vn 1.0000 -0.0000 -0.0000
vn 0.0000 -1.0000 0.0000
vn 0.0000 0.0000 1.0000
vn -1.0000 0.0000 0.0000
vn 0.0000 0.0000 -1.0000
vn 0.0000 1.0000 0.0000
usemtl Material.001
s off
f 10/21/7 14/22/7 16/23/7 12/24/7
f 13/25/8 12/26/8 16/27/8 17/28/8
f 17/28/9 16/27/9 14/29/9 15/30/9
f 15/30/10 11/31/10 13/32/10 17/33/10
f 11/34/11 10/35/11 12/36/11 13/37/11
f 15/38/12 14/39/12 10/40/12 11/31/12
l 12 18
o Cube.002
v -1.000795 -0.984267 -0.038081
v -0.900787 -0.984267 -0.038081
v -1.000795 1.015892 -0.038081
v -0.900787 1.015892 -0.038081
v -1.000795 -0.984267 -1.538200
v -0.900787 -0.984267 -1.538200
v -1.000795 1.015892 -1.538200
v -0.900787 1.015892 -1.538200
v -0.947233 -0.055346 -0.841510
vt 0.375000 0.000000
vt 0.625000 0.000000
vt 0.625000 0.250000
vt 0.375000 0.250000
vt 0.375000 0.250000
vt 0.625000 0.250000
vt 0.625000 0.500000
vt 0.375000 0.500000
vt 0.625000 0.750000
vt 0.375000 0.750000
vt 0.625000 0.750000
vt 0.625000 1.000000
vt 0.375000 1.000000
vt 0.125000 0.500000
vt 0.375000 0.500000
vt 0.375000 0.750000
vt 0.125000 0.750000
vt 0.625000 0.500000
vt 0.875000 0.500000
vt 0.875000 0.750000
vn 1.0000 0.0000 -0.0000
vn 0.0000 -1.0000 0.0000
vn 0.0000 0.0000 1.0000
vn -1.0000 0.0000 0.0000
vn 0.0000 0.0000 -1.0000
vn 0.0000 1.0000 -0.0000
usemtl Material.002
s off
f 19/41/13 23/42/13 25/43/13 21/44/13
f 22/45/14 21/46/14 25/47/14 26/48/14
f 26/48/15 25/47/15 23/49/15 24/50/15
f 24/50/16 20/51/16 22/52/16 26/53/16
f 20/54/17 19/55/17 21/56/17 22/57/17
f 24/58/18 23/59/18 19/60/18 20/51/18
l 21 27
o Cube.003
v -1.015892 -0.984267 -1.650058
v -1.015892 -0.984267 -1.551501
v -1.015892 1.015892 -1.650058
v -1.015892 1.015892 -1.551500
v 0.984267 -0.984267 -1.650058
v 0.984267 -0.984267 -1.551501
v 0.984267 1.015892 -1.650058
v 0.984267 1.015892 -1.551500
v 0.055346 -0.055346 -1.597273
vt 0.375000 0.000000
vt 0.625000 0.000000
vt 0.625000 0.250000
vt 0.375000 0.250000
vt 0.375000 0.250000
vt 0.625000 0.250000
vt 0.625000 0.500000
vt 0.375000 0.500000
vt 0.625000 0.750000
vt 0.375000 0.750000
vt 0.625000 0.750000
vt 0.625000 1.000000
vt 0.375000 1.000000
vt 0.125000 0.500000
vt 0.375000 0.500000
vt 0.375000 0.750000
vt 0.125000 0.750000
vt 0.625000 0.500000
vt 0.875000 0.500000
vt 0.875000 0.750000
vn 0.0000 -0.0000 1.0000
vn 0.0000 -1.0000 0.0000
vn -1.0000 0.0000 0.0000
vn 0.0000 0.0000 -1.0000
vn 1.0000 0.0000 0.0000
vn 0.0000 1.0000 0.0000
usemtl Material.003
s off
f 28/61/19 32/62/19 34/63/19 30/64/19
f 31/65/20 30/66/20 34/67/20 35/68/20
f 35/68/21 34/67/21 32/69/21 33/70/21
f 33/70/22 29/71/22 31/72/22 35/73/22
f 29/74/23 28/75/23 30/76/23 31/77/23
f 33/78/24 32/79/24 28/80/24 29/71/24
l 30 36
