# Blender v2.80 (sub 75) OBJ File: 'Forest.blendD379C932-11C9-4E09-B687-B4B439D4B66E.blend'
# www.blender.org
mtllib pine_tree_green.mtl
o t4-green_Cylinder.006
v 52.641449 -5.430186 1.445972
v 52.437714 1.456703 1.599276
v 52.767143 -5.430186 1.034850
v 52.452778 1.456703 1.550007
v 53.110481 -5.430186 0.776125
v 52.493923 1.456703 1.519001
v 53.540325 -5.430186 0.768623
v 52.545437 1.456703 1.518101
v 53.892483 -5.430186 1.015207
v 52.587639 1.456703 1.547653
v 54.032448 -5.430186 1.421692
v 52.604416 1.456703 1.596367
v 53.906754 -5.430186 1.832814
v 52.589352 1.456703 1.645636
v 53.563416 -5.430186 2.091539
v 52.548203 1.456703 1.676642
v 53.133572 -5.430186 2.099042
v 52.496693 1.456703 1.677542
v 52.781414 -5.430186 1.852457
v 52.454487 1.456703 1.647990
v 52.746891 -4.099150 1.444132
v 52.823029 -2.715365 1.442803
v 52.806213 -1.303991 1.441683
v 52.628357 0.101201 1.394435
v 52.672085 0.101196 1.251965
v 52.870430 -1.304072 1.232017
v 52.907742 -2.715496 1.165957
v 52.852100 -4.099231 1.100147
v 52.791641 0.100936 1.162488
v 53.046394 -1.305153 1.100198
v 53.139606 -2.716696 0.991723
v 53.139702 -4.099831 0.883668
v 52.941555 0.100371 1.160262
v 53.267014 -1.307070 1.096562
v 53.430126 -2.718617 0.986652
v 53.499855 -4.100741 0.877382
v 53.064453 0.099714 1.246053
v 53.447926 -1.308945 1.222490
v 53.668285 -2.720457 1.152681
v 53.794983 -4.101604 1.083690
v 53.113331 0.099371 1.387115
v 53.519978 -1.309999 1.429872
v 53.763069 -2.721416 1.426394
v 53.912331 -4.102037 1.423789
v 53.069576 0.099401 1.529576
v 53.455700 -1.309840 1.639528
v 53.678307 -2.721193 1.703241
v 53.807106 -4.101933 1.767773
v 52.949871 0.099820 1.619011
v 53.279556 -1.308448 1.771344
v 53.446327 -2.719789 1.877476
v 53.519482 -4.101295 1.984253
v 52.799900 0.100481 1.621239
v 53.058929 -1.306519 1.774980
v 53.155796 -2.717848 1.882548
v 53.159325 -4.100370 1.990539
v 52.677139 0.101007 1.535489
v 52.878075 -1.304729 1.649057
v 52.917683 -2.716090 1.716517
v 52.864212 -4.099539 1.784231
v 52.431267 -0.278624 1.383956
v 52.517921 -0.278728 1.102423
v 52.754963 -0.279741 0.925833
v 53.064655 -0.106292 0.945881
v 53.308121 -0.108036 1.115662
v 53.405018 -0.109004 1.394594
v 53.318386 -0.108902 1.676141
v 53.081306 -0.107769 1.852754
v 52.784267 -0.105949 1.856963
v 52.540836 -0.104320 1.687158
v 52.495682 -1.719887 1.601035
v 52.678345 -1.581013 1.067082
v 52.978851 -1.697055 0.728042
v 53.378460 -1.700688 0.721067
v 53.706158 -1.704219 0.949117
v 53.733574 -1.416499 1.456820
v 53.617107 -1.416131 1.837100
v 53.298130 -1.413615 2.076437
v 52.953651 -1.724876 2.205057
v 52.626057 -1.721531 1.977005
v 52.400089 -3.198154 1.465407
v 52.548454 -3.198473 0.980700
v 53.037006 -3.059090 0.658985
v 53.474106 -3.052768 0.629196
v 53.890820 -3.055514 0.919888
v 54.116974 -3.237729 1.363477
v 54.039906 -3.246651 1.869099
v 53.634007 -3.244653 2.174148
v 53.065205 -3.060841 2.218657
v 52.565849 -3.199502 1.944630
v 52.311020 -4.401808 1.451740
v 52.494389 -4.401916 0.852152
v 52.995441 -4.402491 0.474819
v 53.789940 -4.598345 0.460951
v 54.303894 -4.598995 0.820568
v 54.508190 -4.599298 1.413388
v 54.166946 -4.497045 2.015731
v 53.665966 -4.496598 2.393063
v 53.038670 -4.495857 2.404012
v 52.524662 -4.495111 2.044397
v 52.454269 -5.755234 0.810357
v 52.993473 -5.779511 0.416663
v 53.662415 -5.647881 0.396877
v 54.199379 -5.894938 0.789625
v 54.431320 -5.655036 1.414801
v 54.224831 -5.848897 2.050151
v 53.698452 -5.655036 2.461442
v 53.029564 -5.803888 2.463910
v 52.476570 -5.755234 2.087874
v 52.273090 -5.958835 1.452471
v 52.852119 -5.401065 1.442295
v 52.939739 -5.401065 1.155703
v 53.179081 -5.401065 0.975347
v 53.478722 -5.401065 0.970117
v 53.724209 -5.401065 1.142010
v 53.821777 -5.401065 1.425370
v 53.734158 -5.401065 1.711961
v 53.494816 -5.401065 1.892317
v 53.195175 -5.401065 1.897547
v 52.949688 -5.401065 1.725654
v 52.767544 -8.633509 1.443772
v 52.870445 -8.633509 1.107185
v 53.151539 -8.633509 0.895367
v 53.503452 -8.633509 0.889224
v 53.791767 -8.633509 1.091104
v 53.906353 -8.633509 1.423895
v 53.803452 -8.633509 1.760481
v 53.522358 -8.633509 1.972299
v 53.170444 -8.633509 1.978442
v 52.882130 -8.633509 1.776562
v 53.624859 -7.017287 1.216877
v 53.442348 -7.017287 1.089083
v 53.049038 -7.017287 1.650788
v 53.231548 -7.017287 1.778582
v 53.219582 -7.017287 1.092971
v 53.041641 -7.017287 1.227057
v 53.454315 -7.017287 1.774694
v 53.632256 -7.017287 1.640608
v 53.697395 -7.017287 1.427541
v 52.976501 -7.017287 1.440124
vn -0.9550 0.0400 -0.2940
vn -0.5870 0.1813 -0.7890
vn -0.1117 0.3087 -0.9446
vn 0.5157 0.4404 -0.7350
vn 0.8367 0.4651 -0.2891
vn 0.8714 0.4110 0.2680
vn 0.5740 0.2823 0.7687
vn 0.0148 0.1168 0.9930
vn 0.0000 1.0000 0.0000
vn -0.9319 -0.0413 0.3605
vn -0.5721 -0.0111 0.8201
vn 0.0865 -0.9896 0.1149
vn -0.5262 0.2646 0.8081
vn -0.5520 0.2679 0.7896
vn -0.5144 0.2085 0.8318
vn -0.5571 0.2100 0.8034
vn -0.9407 0.2602 0.2179
vn -0.8933 0.2644 0.3636
vn -0.9253 0.2025 0.3206
vn -0.9394 0.1054 0.3262
vn -0.0603 0.2867 0.9561
vn 0.0171 0.2806 0.9597
vn 0.1488 0.2274 0.9624
vn 0.0788 0.3050 0.9491
vn 0.6526 0.2705 0.7078
vn 0.5754 0.2927 0.7637
vn 0.5799 0.2662 0.7699
vn 0.5629 0.3548 0.7465
vn 0.8799 0.2919 0.3750
vn 0.8438 0.3319 0.4217
vn 0.9460 0.2878 0.1493
vn 0.8864 0.3752 0.2711
vn 0.8562 0.2886 -0.4284
vn 0.8846 0.3531 -0.3047
vn 0.8957 0.2890 -0.3379
vn 0.8999 0.3567 -0.2507
vn 0.6455 0.2631 -0.7170
vn 0.5432 0.3210 -0.7758
vn 0.5511 0.2762 -0.7874
vn 0.5433 0.3210 -0.7758
vn -0.0848 0.2874 -0.9541
vn 0.0518 0.2782 -0.9591
vn -0.0694 0.2503 -0.9657
vn -0.0148 0.2335 -0.9722
vn -0.5604 0.2668 -0.7840
vn -0.5766 0.2842 -0.7660
vn -0.5782 0.2020 -0.7905
vn -0.7304 0.0876 -0.6774
vn -0.9477 0.2600 -0.1850
vn -0.9187 0.2775 -0.2810
vn -0.9374 0.1974 -0.2870
vn -0.9483 0.0333 -0.3157
vn 0.4059 -0.7018 -0.5854
vn 0.8514 -0.4337 -0.2950
vn -0.0131 -0.7518 -0.6593
vn -0.3702 -0.7881 -0.4918
vn -0.5695 -0.8032 -0.1747
vn -0.5731 -0.7956 0.1966
vn -0.3708 -0.7658 0.5254
vn 0.0106 -0.5287 0.8488
vn 0.5225 -0.4874 0.6996
vn 0.8536 -0.4502 0.2620
vn 0.7329 -0.6422 0.2247
vn 0.4449 -0.6655 0.5993
vn 0.0060 -0.6891 0.7246
vn -0.4206 -0.6857 0.5941
vn -0.4564 -0.8763 0.1541
vn -0.4291 -0.8937 -0.1309
vn -0.2352 -0.9230 -0.3045
vn -0.0136 -0.9456 -0.3251
vn 0.7259 -0.6393 -0.2538
vn 0.4012 -0.7038 -0.5862
vn 0.7380 -0.6358 0.2261
vn 0.4315 -0.6919 0.5789
vn 0.0071 -0.7301 0.6833
vn -0.4181 -0.6890 0.5920
vn -0.7792 -0.5667 0.2678
vn -0.7649 -0.6002 -0.2337
vn -0.5019 -0.5546 -0.6637
vn -0.0172 -0.6975 -0.7164
vn 0.7222 -0.6443 -0.2515
vn 0.4098 -0.6913 -0.5951
vn 0.5638 -0.8077 0.1726
vn 0.3540 -0.8071 0.4725
vn 0.0083 -0.8051 0.5931
vn -0.4025 -0.7140 0.5728
vn -0.6238 -0.7516 0.2143
vn -0.6581 -0.7256 -0.2011
vn -0.4161 -0.7236 -0.5507
vn -0.0140 -0.7205 -0.6933
vn 0.6595 -0.7162 -0.2283
vn 0.3977 -0.7175 -0.5718
vn 0.7971 -0.5524 0.2437
vn 0.3987 -0.7491 0.5290
vn 0.0121 -0.7191 0.6948
vn -0.2882 -0.8646 0.4116
vn -0.7447 -0.6162 0.2564
vn -0.7185 -0.6599 -0.2197
vn -0.3085 -0.8587 -0.4093
vn -0.0125 -0.6968 -0.7172
vn 0.7881 -0.5525 -0.2714
vn 0.3799 -0.7492 -0.5425
vn 0.5693 0.1221 -0.8130
vn -0.0865 -0.9896 -0.1149
vn 0.0025 -0.9896 0.1438
vn 0.1375 -0.9896 0.0420
vn -0.0025 -0.9896 -0.1438
vn -0.0825 -0.9896 0.1178
vn 0.0825 -0.9896 -0.1178
vn -0.1360 -0.9896 0.0468
vn 0.1360 -0.9896 -0.0468
vn -0.1375 -0.9896 -0.0420
vn 0.0000 -1.0000 0.0000
vn -0.5693 0.1221 0.8130
vn -0.5973 0.1221 -0.7927
vn 0.5973 0.1221 0.7927
vn 0.9384 0.1221 -0.3231
vn -0.9385 0.1221 0.3231
vn -0.0173 0.1221 -0.9924
vn 0.0173 0.1221 0.9924
vn -0.9492 0.1221 -0.2902
vn 0.9492 0.1221 0.2902
vn 0.9538 -0.0730 0.2916
vn -0.9538 -0.0730 -0.2916
vn 0.0174 -0.0730 0.9972
vn -0.0174 -0.0730 -0.9972
vn -0.9430 -0.0730 0.3247
vn 0.9430 -0.0730 -0.3247
vn 0.6002 -0.0730 0.7965
vn -0.6002 -0.0730 -0.7965
vn -0.5720 -0.0730 0.8170
vn 0.5720 -0.0730 -0.8170
vn -0.9555 0.0398 -0.2922
vn -0.5920 0.1803 -0.7855
vn -0.0165 0.3210 -0.9469
vn 0.5150 0.4403 -0.7355
vn 0.8370 0.4651 -0.2883
vn 0.8717 0.4111 0.2665
vn 0.5772 0.2829 0.7660
vn 0.0173 0.1172 0.9930
vn -0.9446 -0.0441 0.3252
vn -0.5735 -0.0112 0.8191
vn -0.5506 0.2735 0.7887
vn -0.5498 0.2673 0.7914
vn -0.5564 0.2168 0.8022
vn -0.5593 0.2100 0.8020
vn -0.9187 0.2355 0.3172
vn -0.9078 0.2773 0.3147
vn -0.9251 0.2024 0.3213
vn -0.9398 0.1054 0.3252
vn 0.0175 0.2665 0.9637
vn 0.0186 0.2803 0.9597
vn 0.0181 0.2452 0.9693
vn 0.0155 0.3058 0.9520
vn 0.5741 0.3001 0.7618
vn 0.5789 0.2663 0.7707
vn 0.5603 0.3551 0.7483
vn 0.9218 0.2660 0.2819
vn 0.9122 0.3001 0.2790
vn 0.9098 0.3075 0.2787
vn 0.8862 0.3751 0.2721
vn 0.9135 0.2576 -0.3149
vn 0.8844 0.3532 -0.3050
vn 0.9061 0.2841 -0.3134
vn 0.8806 0.3633 -0.3042
vn 0.5471 0.3002 -0.7814
vn 0.5510 0.2762 -0.7875
vn -0.0161 0.2691 -0.9630
vn -0.0147 0.2943 -0.9556
vn -0.0139 0.2440 -0.9697
vn -0.0136 0.2335 -0.9723
vn -0.5781 0.2734 -0.7688
vn -0.5751 0.2837 -0.7673
vn -0.5862 0.2037 -0.7842
vn -0.5969 0.0855 -0.7978
vn -0.9294 0.2355 -0.2843
vn -0.9187 0.2774 -0.2812
vn -0.9373 0.1974 -0.2872
vn -0.9556 0.0287 -0.2933
vn 0.4048 -0.7010 -0.5871
vn 0.8371 -0.5469 0.0119
vn -0.0140 -0.7515 -0.6596
vn -0.3701 -0.7881 -0.4918
vn -0.5694 -0.8033 -0.1749
vn -0.5733 -0.7955 0.1964
vn -0.3717 -0.7656 0.5251
vn 0.2885 -0.6012 0.7452
vn 0.5207 -0.4864 0.7017
vn 0.8536 -0.4498 0.2629
vn 0.8180 -0.5593 0.1344
vn 0.4378 -0.6576 0.6131
vn 0.0064 -0.6893 0.7245
vn -0.4207 -0.6857 0.5940
vn -0.6001 -0.6816 0.4187
vn -0.4289 -0.8939 -0.1305
vn -0.2353 -0.9232 -0.3039
vn 0.4166 -0.7005 -0.5794
vn 0.7258 -0.6391 -0.2545
vn 0.4010 -0.7038 -0.5864
vn 0.7379 -0.6358 0.2263
vn 0.5467 -0.6218 0.5608
vn 0.0584 -0.7047 0.7071
vn -0.4178 -0.6888 0.5925
vn -0.7757 -0.6146 0.1430
vn -0.8249 -0.5489 -0.1354
vn -0.5016 -0.5547 -0.6638
vn -0.2380 -0.5410 -0.8066
vn 0.7221 -0.6444 -0.2516
vn 0.4987 -0.6392 -0.5854
vn 0.3550 -0.8067 0.4726
vn -0.1567 -0.6860 0.7105
vn -0.4018 -0.7143 0.5730
vn -0.6236 -0.7517 0.2145
vn -0.6262 -0.7456 -0.2282
vn -0.4154 -0.7240 -0.5507
vn -0.0129 -0.7211 -0.6927
vn 0.5373 -0.7817 -0.3167
vn 0.3982 -0.7181 -0.5707
vn 0.7251 -0.6885 -0.0137
vn 0.3871 -0.7210 0.5747
vn 0.1778 -0.8226 0.5401
vn -0.6250 -0.6339 0.4557
vn -0.4305 -0.7777 0.4581
vn -0.4569 -0.7984 -0.3921
vn -0.5916 -0.6768 -0.4381
vn 0.1783 -0.8106 -0.5578
vn 0.7252 -0.6885 -0.0116
vn 0.3575 -0.7015 -0.6165
vn 0.9385 0.1221 -0.3231
vn -0.9384 0.1221 0.3231
usemtl GreenLeaves
s off
f 61//1 4//1 62//1
f 62//2 6//2 63//2
f 63//3 8//3 64//3
f 64//4 10//4 65//4
f 10//5 66//5 65//5
f 12//6 67//6 66//6
f 14//7 68//7 67//7
f 16//8 69//8 68//8
f 14//9 10//9 6//9
f 70//10 2//10 61//10
f 18//11 70//11 69//11
f 5//12 112//12 3//12
f 56//13 109//13 108//13
f 55//14 100//14 99//14
f 54//15 90//15 89//15
f 53//16 80//16 79//16
f 60//17 110//17 109//17
f 59//18 91//18 100//18
f 58//19 81//19 90//19
f 57//20 71//20 80//20
f 52//21 108//21 107//21
f 51//22 99//22 98//22
f 50//23 89//23 88//23
f 49//24 79//24 78//24
f 48//25 107//25 106//25
f 47//26 98//26 97//26
f 46//27 88//27 87//27
f 45//28 78//28 77//28
f 44//29 106//29 105//29
f 43//30 97//30 96//30
f 42//31 87//31 86//31
f 76//32 45//32 77//32
f 104//33 44//33 105//33
f 95//34 43//34 96//34
f 85//35 42//35 86//35
f 75//36 41//36 76//36
f 103//37 40//37 104//37
f 94//38 39//38 95//38
f 84//39 38//39 85//39
f 74//40 37//40 75//40
f 102//41 36//41 103//41
f 93//42 35//42 94//42
f 83//43 34//43 84//43
f 73//44 33//44 74//44
f 101//45 32//45 102//45
f 92//46 31//46 93//46
f 82//47 30//47 83//47
f 72//48 29//48 73//48
f 110//49 28//49 101//49
f 91//50 27//50 92//50
f 81//51 26//51 82//51
f 24//52 72//52 71//52
f 53//53 70//53 57//53
f 57//54 61//54 24//54
f 49//55 69//55 53//55
f 45//56 68//56 49//56
f 41//57 67//57 45//57
f 65//58 41//58 37//58
f 64//59 37//59 33//59
f 63//60 33//60 29//60
f 62//61 29//61 25//61
f 61//62 25//62 24//62
f 23//63 72//63 26//63
f 72//64 30//64 26//64
f 73//65 34//65 30//65
f 34//66 75//66 38//66
f 38//67 76//67 42//67
f 76//68 46//68 42//68
f 77//69 50//69 46//69
f 78//70 54//70 50//70
f 58//71 71//71 23//71
f 54//72 80//72 58//72
f 22//73 82//73 27//73
f 27//74 83//74 31//74
f 31//75 84//75 35//75
f 35//76 85//76 39//76
f 39//77 86//77 43//77
f 43//78 87//78 47//78
f 47//79 88//79 51//79
f 51//80 89//80 55//80
f 90//81 22//81 59//81
f 89//82 59//82 55//82
f 21//83 92//83 28//83
f 28//84 93//84 32//84
f 93//85 36//85 32//85
f 94//86 40//86 36//86
f 95//87 44//87 40//87
f 44//88 97//88 48//88
f 48//89 98//89 52//89
f 52//90 99//90 56//90
f 100//91 21//91 60//91
f 56//92 100//92 60//92
f 110//93 3//93 1//93
f 101//94 5//94 3//94
f 102//95 7//95 5//95
f 103//96 9//96 7//96
f 104//97 11//97 9//97
f 11//98 106//98 13//98
f 13//99 107//99 15//99
f 15//100 108//100 17//100
f 19//101 110//101 1//101
f 17//102 109//102 19//102
usemtl Trunck
f 131//103 124//103 132//103
usemtl GreenLeaves
f 15//104 117//104 13//104
f 7//105 113//105 5//105
f 3//106 111//106 1//106
f 17//107 118//107 15//107
f 9//108 114//108 7//108
f 19//109 119//109 17//109
f 11//110 115//110 9//110
f 1//111 120//111 19//111
f 13//112 116//112 11//112
usemtl Trunck
f 124//113 126//113 128//113
f 134//114 130//114 129//114
f 136//115 123//115 122//115
f 137//116 127//116 138//116
f 139//117 125//117 131//117
f 133//118 121//118 130//118
f 132//119 123//119 135//119
f 134//120 128//120 137//120
f 140//121 122//121 121//121
f 138//122 126//122 139//122
f 117//123 139//123 116//123
f 111//124 136//124 140//124
f 118//125 134//125 137//125
f 114//126 135//126 113//126
f 120//127 140//127 133//127
f 116//128 131//128 115//128
f 118//129 138//129 117//129
f 112//130 135//130 136//130
f 119//131 133//131 134//131
f 115//132 132//132 114//132
usemtl GreenLeaves
f 61//133 2//133 4//133
f 62//134 4//134 6//134
f 63//135 6//135 8//135
f 64//136 8//136 10//136
f 10//137 12//137 66//137
f 12//138 14//138 67//138
f 14//139 16//139 68//139
f 16//140 18//140 69//140
f 6//9 4//9 2//9
f 2//9 20//9 18//9
f 18//9 16//9 14//9
f 14//9 12//9 10//9
f 10//9 8//9 6//9
f 6//9 2//9 18//9
f 18//9 14//9 6//9
f 70//141 20//141 2//141
f 18//142 20//142 70//142
f 5//12 113//12 112//12
f 56//143 60//143 109//143
f 55//144 59//144 100//144
f 54//145 58//145 90//145
f 53//146 57//146 80//146
f 60//147 21//147 110//147
f 59//148 22//148 91//148
f 58//149 23//149 81//149
f 57//150 24//150 71//150
f 52//151 56//151 108//151
f 51//152 55//152 99//152
f 50//153 54//153 89//153
f 49//154 53//154 79//154
f 48//155 52//155 107//155
f 47//26 51//26 98//26
f 46//156 50//156 88//156
f 45//157 49//157 78//157
f 44//158 48//158 106//158
f 43//159 47//159 97//159
f 42//160 46//160 87//160
f 76//161 41//161 45//161
f 104//162 40//162 44//162
f 95//163 39//163 43//163
f 85//164 38//164 42//164
f 75//165 37//165 41//165
f 103//166 36//166 40//166
f 94//40 35//40 39//40
f 84//167 34//167 38//167
f 74//40 33//40 37//40
f 102//168 32//168 36//168
f 93//169 31//169 35//169
f 83//170 30//170 34//170
f 73//171 29//171 33//171
f 101//172 28//172 32//172
f 92//173 27//173 31//173
f 82//174 26//174 30//174
f 72//175 25//175 29//175
f 110//176 21//176 28//176
f 91//177 22//177 27//177
f 81//178 23//178 26//178
f 24//179 25//179 72//179
f 53//180 69//180 70//180
f 57//181 70//181 61//181
f 49//182 68//182 69//182
f 45//183 67//183 68//183
f 41//184 66//184 67//184
f 65//185 66//185 41//185
f 64//186 65//186 37//186
f 63//187 64//187 33//187
f 62//188 63//188 29//188
f 61//189 62//189 25//189
f 23//190 71//190 72//190
f 72//191 73//191 30//191
f 73//192 74//192 34//192
f 34//193 74//193 75//193
f 38//194 75//194 76//194
f 76//195 77//195 46//195
f 77//196 78//196 50//196
f 78//197 79//197 54//197
f 58//198 80//198 71//198
f 54//199 79//199 80//199
f 22//200 81//200 82//200
f 27//201 82//201 83//201
f 31//202 83//202 84//202
f 35//203 84//203 85//203
f 39//204 85//204 86//204
f 43//205 86//205 87//205
f 47//206 87//206 88//206
f 51//207 88//207 89//207
f 90//208 81//208 22//208
f 89//209 90//209 59//209
f 21//83 91//83 92//83
f 28//210 92//210 93//210
f 93//211 94//211 36//211
f 94//212 95//212 40//212
f 95//213 96//213 44//213
f 44//214 96//214 97//214
f 48//215 97//215 98//215
f 52//216 98//216 99//216
f 100//217 91//217 21//217
f 56//218 99//218 100//218
f 110//219 101//219 3//219
f 101//220 102//220 5//220
f 102//221 103//221 7//221
f 103//222 104//222 9//222
f 104//223 105//223 11//223
f 11//224 105//224 106//224
f 13//225 106//225 107//225
f 15//226 107//226 108//226
f 19//227 109//227 110//227
f 17//228 108//228 109//228
usemtl Trunck
f 131//103 125//103 124//103
usemtl GreenLeaves
f 15//104 118//104 117//104
f 7//105 114//105 113//105
f 3//106 112//106 111//106
f 17//107 119//107 118//107
f 9//108 115//108 114//108
f 19//109 120//109 119//109
f 11//110 116//110 115//110
f 1//111 111//111 120//111
f 13//112 117//112 116//112
usemtl Trunck
f 130//113 121//113 122//113
f 122//113 123//113 124//113
f 124//113 125//113 126//113
f 126//113 127//113 128//113
f 128//113 129//113 130//113
f 130//113 122//113 128//113
f 122//113 124//113 128//113
f 134//114 133//114 130//114
f 136//115 135//115 123//115
f 137//116 128//116 127//116
f 139//229 126//229 125//229
f 133//230 140//230 121//230
f 132//119 124//119 123//119
f 134//120 129//120 128//120
f 140//121 136//121 122//121
f 138//122 127//122 126//122
f 117//123 138//123 139//123
f 111//124 112//124 136//124
f 118//125 119//125 134//125
f 114//126 132//126 135//126
f 120//127 111//127 140//127
f 116//128 139//128 131//128
f 118//129 137//129 138//129
f 112//130 113//130 135//130
f 119//131 120//131 133//131
f 115//132 131//132 132//132
