# Blender v2.80 (sub 75) OBJ File: ''
# www.blender.org
o Cube.003
v -0.090733 1.657983 0.125884
v -0.020949 2.382323 0.014843
v 1.270355 1.589836 1.306147
v -0.020949 2.382323 0.056100
v 1.270355 1.589836 -1.235203
v -1.270995 1.589836 1.306147
v 0.020309 2.382323 0.014843
v 0.020309 2.382323 0.056101
v -1.270995 1.589836 -1.235203
v 1.270355 1.589836 1.306147
v 1.270355 1.589836 -1.235203
v -1.270995 1.589836 1.306147
v -1.270995 1.589836 -1.235203
v 1.270355 1.491173 1.306147
v 1.270355 1.491173 -1.235203
v -1.270995 1.491173 -1.235203
v -1.270995 1.491173 1.306147
vt 0.497971 0.877029
vt 0.502029 0.877029
vt 0.502029 0.872971
vt 0.375000 0.750000
vt 0.375000 1.000000
vt 0.625000 0.750000
vt 0.625000 1.000000
vt 0.497971 0.872971
vt 0.767844 0.750000
vt 0.267844 0.750000
vt 0.517844 0.500000
vt 0.767844 0.500000
vt 0.752029 0.500000
vt 0.752029 0.750000
vt 0.267844 0.500000
vt 0.252029 0.500000
vt 0.252029 0.750000
vt 0.517844 0.250000
vt 0.502029 0.250000
vt 0.502029 0.500000
vt 0.502029 0.750000
vt 0.517844 0.750000
vn 0.0000 -1.0000 0.0000
vn 0.5231 -0.8523 0.0000
vn -0.0000 -0.8523 -0.5231
vn -0.0000 -0.8523 0.5231
vn -0.5231 -0.8523 0.0000
vn 0.0000 1.0000 0.0000
vn -0.0000 0.0000 -1.0000
vn -1.0000 0.0000 0.0000
vn 0.0000 0.0000 1.0000
vn 1.0000 0.0000 0.0000
vn -0.5231 0.8523 -0.0000
vn -0.0000 0.8523 0.5231
vn 0.0000 0.8523 -0.5231
vn 0.5231 0.8523 0.0000
s off
usemtl Trunck
f 2/1/1 7/2/1 8/3/1
f 7/2/2 6/4/2 9/5/2
f 2/1/3 3/6/3 6/4/3
f 8/3/4 9/5/4 5/7/4
f 4/8/5 5/7/5 3/6/5
f 14/9/6 15/10/6 16/11/6
f 17/12/7 6/13/7 3/14/7
f 14/15/8 3/16/8 5/17/8
f 15/18/9 5/19/9 9/20/9
f 16/11/10 9/20/10 6/21/10
f 2/1/1 8/3/1 4/8/1
f 7/2/11 9/5/11 8/3/11
f 2/1/12 6/4/12 7/2/12
f 8/3/13 5/7/13 4/8/13
f 4/8/14 3/6/14 2/1/14
f 14/9/6 16/11/6 17/22/6
f 17/12/7 3/14/7 14/9/7
f 14/15/8 5/17/8 15/10/8
f 15/18/9 9/20/9 16/11/9
f 16/11/10 6/21/10 17/22/10
l 13 12
l 12 10
l 11 13
l 10 11
