# Blender v2.80 (sub 75) OBJ File: 'beach_hut.blend'
# www.blender.org
mtllib square.mtl
o Cube
v -1.015892 -1.181121 -0.050795
v -1.015892 -1.181121 0.049213
v -1.015892 1.219071 -0.050795
v -1.015892 1.219071 0.049213
v 0.984267 -1.181121 -0.050795
v 0.984267 -1.181121 0.049213
v 0.984267 1.219071 -0.050795
v 0.984267 1.219071 0.049213
v 0.055346 -0.066416 0.002767
vt 0.625000 0.000000
vt 0.375000 0.250000
vt 0.375000 0.000000
vt 0.625000 0.250000
vt 0.375000 0.500000
vt 0.375000 0.250000
vt 0.625000 0.500000
vt 0.375000 0.750000
vt 0.625000 0.750000
vt 0.375000 1.000000
vt 0.375000 0.500000
vt 0.125000 0.750000
vt 0.125000 0.500000
vt 0.875000 0.500000
vt 0.625000 0.500000
vt 0.625000 0.250000
vt 0.625000 0.750000
vt 0.625000 1.000000
vt 0.375000 0.750000
vt 0.875000 0.750000
vn 0.0000 -0.0000 1.0000
vn 0.0000 -1.0000 0.0000
vn -1.0000 0.0000 0.0000
vn 0.0000 0.0000 -1.0000
vn 1.0000 0.0000 0.0000
vn 0.0000 1.0000 0.0000
usemtl Material
s off
f 5/1/1 3/2/1 1/3/1
f 3/4/2 8/5/2 4/6/2
f 7/7/3 6/8/3 8/5/3
f 2/9/4 8/10/4 6/8/4
f 1/11/5 4/12/5 2/13/5
f 5/14/6 2/9/6 6/15/6
f 5/1/1 7/16/1 3/2/1
f 3/4/2 7/7/2 8/5/2
f 7/7/3 5/17/3 6/8/3
f 2/9/4 4/18/4 8/10/4
f 1/11/5 3/19/5 4/12/5
f 5/14/6 1/20/6 2/9/6
l 3 9
o Cube.001
v 0.879205 -0.984267 -0.038081
v 0.979213 -0.984267 -0.038081
v 0.879205 1.015892 -0.038081
v 0.979213 1.015892 -0.038081
v 0.879205 -0.984267 -1.538200
v 0.979213 -0.984267 -1.538200
v 0.879205 1.015892 -1.538200
v 0.979213 1.015892 -1.538200
v 0.932767 -0.055346 -0.841510
vt 0.625000 0.000000
vt 0.375000 0.250000
vt 0.375000 0.000000
vt 0.625000 0.250000
vt 0.375000 0.500000
vt 0.375000 0.250000
vt 0.625000 0.500000
vt 0.375000 0.750000
vt 0.625000 0.750000
vt 0.375000 1.000000
vt 0.375000 0.500000
vt 0.125000 0.750000
vt 0.125000 0.500000
vt 0.875000 0.500000
vt 0.625000 0.500000
vt 0.625000 0.250000
vt 0.625000 0.750000
vt 0.625000 1.000000
vt 0.375000 0.750000
vt 0.875000 0.750000
vn 1.0000 -0.0000 -0.0000
vn 0.0000 -1.0000 -0.0000
vn 0.0000 0.0000 1.0000
vn -1.0000 0.0000 0.0000
vn 0.0000 0.0000 -1.0000
vn 0.0000 1.0000 -0.0000
usemtl Material.001
s off
f 14/21/7 12/22/7 10/23/7
f 12/24/8 17/25/8 13/26/8
f 16/27/9 15/28/9 17/25/9
f 11/29/10 17/30/10 15/28/10
f 10/31/11 13/32/11 11/33/11
f 14/34/12 11/29/12 15/35/12
f 14/21/7 16/36/7 12/22/7
f 12/24/8 16/27/8 17/25/8
f 16/27/9 14/37/9 15/28/9
f 11/29/10 13/38/10 17/30/10
f 10/31/11 12/39/11 13/32/11
f 14/34/12 10/40/12 11/29/12
l 12 18
o Cube.002
v -1.000795 -0.984267 -0.038081
v -0.900787 -0.984267 -0.038081
v -1.000795 1.015892 -0.038081
v -0.900787 1.015892 -0.038081
v -1.000795 -0.984267 -1.538200
v -0.900787 -0.984267 -1.538200
v -1.000795 1.015892 -1.538200
v -0.900787 1.015892 -1.538200
v -0.947233 -0.055346 -0.841510
vt 0.625000 0.000000
vt 0.375000 0.250000
vt 0.375000 0.000000
vt 0.625000 0.250000
vt 0.375000 0.500000
vt 0.375000 0.250000
vt 0.625000 0.500000
vt 0.375000 0.750000
vt 0.625000 0.750000
vt 0.375000 1.000000
vt 0.375000 0.500000
vt 0.125000 0.750000
vt 0.125000 0.500000
vt 0.875000 0.500000
vt 0.625000 0.500000
vt 0.625000 0.250000
vt 0.625000 0.750000
vt 0.625000 1.000000
vt 0.375000 0.750000
vt 0.875000 0.750000
vn 1.0000 0.0000 0.0000
vn 0.0000 -1.0000 -0.0000
vn 0.0000 0.0000 1.0000
vn -1.0000 0.0000 0.0000
vn 0.0000 0.0000 -1.0000
vn 0.0000 1.0000 -0.0000
usemtl Material.002
s off
f 23/41/13 21/42/13 19/43/13
f 21/44/14 26/45/14 22/46/14
f 25/47/15 24/48/15 26/45/15
f 20/49/16 26/50/16 24/48/16
f 19/51/17 22/52/17 20/53/17
f 23/54/18 20/49/18 24/55/18
f 23/41/13 25/56/13 21/42/13
f 21/44/14 25/47/14 26/45/14
f 25/47/15 23/57/15 24/48/15
f 20/49/16 22/58/16 26/50/16
f 19/51/17 21/59/17 22/52/17
f 23/54/18 19/60/18 20/49/18
l 21 27
o Cube.003
v 0.049911 -0.125636 -1.746380
v -0.019873 -0.014594 -2.470720
v -1.311177 -1.305898 -1.678233
v -0.019873 -0.055852 -2.470720
v -1.311177 1.235452 -1.678233
v 1.230173 -1.305898 -1.678233
v -0.061131 -0.014594 -2.470720
v -0.061131 -0.055852 -2.470720
v 1.230173 1.235452 -1.678233
v -1.311177 -1.305898 -1.678233
v -1.311177 1.235452 -1.678233
v 1.230173 -1.305898 -1.678233
v 1.230173 1.235452 -1.678233
v -1.311177 -1.305898 -1.579570
v -1.311177 1.235452 -1.579570
v 1.230173 1.235452 -1.579570
v 1.230173 -1.305898 -1.579570
vt 0.497971 0.877029
vt 0.502029 0.877029
vt 0.502029 0.872971
vt 0.375000 0.750000
vt 0.375000 1.000000
vt 0.625000 0.750000
vt 0.625000 1.000000
vt 0.497971 0.872971
vt 0.767844 0.750000
vt 0.267844 0.750000
vt 0.517844 0.500000
vt 0.767844 0.500000
vt 0.752029 0.500000
vt 0.752029 0.750000
vt 0.267844 0.500000
vt 0.252029 0.500000
vt 0.252029 0.750000
vt 0.517844 0.250000
vt 0.502029 0.250000
vt 0.502029 0.500000
vt 0.502029 0.750000
vt 0.517844 0.750000
vn 0.0000 0.0000 1.0000
vn -0.5231 -0.0000 0.8523
vn 0.0000 0.5231 0.8523
vn 0.0000 -0.5231 0.8523
vn 0.5231 -0.0000 0.8523
vn 0.0000 0.0000 -1.0000
vn 0.0000 1.0000 0.0000
vn 1.0000 0.0000 0.0000
vn 0.0000 -1.0000 0.0000
vn -1.0000 -0.0000 0.0000
vn 0.5231 0.0000 -0.8523
vn 0.0000 -0.5231 -0.8523
vn -0.0000 0.5231 -0.8523
vn -0.5231 0.0000 -0.8523
usemtl Material.003
s off
f 29/61/19 34/62/19 35/63/19
f 34/62/20 33/64/20 36/65/20
f 29/61/21 30/66/21 33/64/21
f 35/63/22 36/65/22 32/67/22
f 31/68/23 32/67/23 30/66/23
f 41/69/24 42/70/24 43/71/24
f 44/72/25 33/73/25 30/74/25
f 41/75/26 30/76/26 32/77/26
f 42/78/27 32/79/27 36/80/27
f 43/71/28 36/80/28 33/81/28
f 29/61/19 35/63/19 31/68/19
f 34/62/29 36/65/29 35/63/29
f 29/61/30 33/64/30 34/62/30
f 35/63/31 32/67/31 31/68/31
f 31/68/32 30/66/32 29/61/32
f 41/69/24 43/71/24 44/82/24
f 44/72/25 30/74/25 41/69/25
f 41/75/26 32/77/26 42/70/26
f 42/78/27 36/80/27 43/71/27
f 43/71/28 33/81/28 44/82/28
l 40 39
l 39 37
l 38 40
l 37 38
o Cube.004
v -0.220565 -1.188379 -0.047722
v -0.220565 -1.295261 -0.047722
v 0.220565 -1.188379 -0.047722
v 0.220565 -1.295261 -0.047722
v -0.220565 -1.188379 0.198278
v -0.220565 -1.295261 0.198278
v 0.220565 -1.188379 0.198278
v 0.220565 -1.295261 0.198278
vt 0.625000 0.125000
vt 0.375000 0.125000
vt 0.375000 0.250000
vt 0.625000 0.250000
vt 0.375000 0.500000
vt 0.875000 0.500000
vt 0.625000 0.500000
vt 0.625000 0.625000
vt 0.125000 0.500000
vt 0.125000 0.625000
vt 0.375000 0.625000
vt 0.875000 0.625000
vn -1.0000 0.0000 0.0000
vn 0.0000 0.0000 -1.0000
vn 0.0000 -1.0000 0.0000
vn 0.0000 1.0000 0.0000
vn 1.0000 0.0000 0.0000
usemtl None
s off
f 50/83/33 49/84/33 45/85/33
f 46/86/34 45/85/34 47/87/34
f 46/88/35 48/89/35 52/90/35
f 47/87/36 45/91/36 49/92/36
f 48/89/37 47/87/37 51/93/37
f 50/83/33 45/85/33 46/86/33
f 46/86/34 47/87/34 48/89/34
f 46/88/35 52/90/35 50/94/35
f 47/87/36 49/92/36 51/93/36
f 48/89/37 51/93/37 52/90/37
o Cube.005
v -0.220565 -1.297937 0.021510
v -0.220565 -1.404819 0.021510
v 0.220565 -1.297937 0.021510
v 0.220565 -1.404819 0.021510
v -0.220565 -1.297937 0.195108
v -0.220565 -1.404819 0.195108
v 0.220565 -1.297937 0.195108
v 0.220565 -1.404819 0.195108
vt 0.625000 0.127242
vt 0.375000 0.127242
vt 0.375000 0.250000
vt 0.625000 0.250000
vt 0.375000 0.500000
vt 0.875000 0.500000
vt 0.625000 0.500000
vt 0.625000 0.622758
vt 0.125000 0.500000
vt 0.125000 0.622758
vt 0.375000 0.622758
vt 0.875000 0.622758
vn -1.0000 0.0000 0.0000
vn 0.0000 0.0000 -1.0000
vn 0.0000 -1.0000 0.0000
vn 0.0000 1.0000 0.0000
vn 1.0000 0.0000 0.0000
usemtl None
s off
f 58/95/38 57/96/38 53/97/38
f 54/98/39 53/97/39 55/99/39
f 54/100/40 56/101/40 60/102/40
f 55/99/41 53/103/41 57/104/41
f 56/101/42 55/99/42 59/105/42
f 58/95/38 53/97/38 54/98/38
f 54/98/39 55/99/39 56/101/39
f 54/100/40 60/102/40 58/106/40
f 55/99/41 57/104/41 59/105/41
f 56/101/42 59/105/42 60/102/42
o Cube.006
v -0.220565 -1.403390 0.091278
v -0.220565 -1.510273 0.091278
v 0.220565 -1.403390 0.091278
v 0.220565 -1.510273 0.091278
v -0.220565 -1.403390 0.198278
v -0.220565 -1.510273 0.198278
v 0.220565 -1.403390 0.198278
v 0.220565 -1.510273 0.198278
vt 0.625000 0.125000
vt 0.375000 0.125000
vt 0.375000 0.250000
vt 0.625000 0.250000
vt 0.375000 0.500000
vt 0.875000 0.500000
vt 0.625000 0.500000
vt 0.625000 0.625000
vt 0.125000 0.500000
vt 0.125000 0.625000
vt 0.375000 0.625000
vt 0.875000 0.625000
vn -1.0000 0.0000 0.0000
vn 0.0000 0.0000 -1.0000
vn 0.0000 -1.0000 0.0000
vn 0.0000 1.0000 0.0000
vn 1.0000 0.0000 0.0000
usemtl None
s off
f 66/107/43 65/108/43 61/109/43
f 62/110/44 61/109/44 63/111/44
f 62/112/45 64/113/45 68/114/45
f 63/111/46 61/115/46 65/116/46
f 64/113/47 63/111/47 67/117/47
f 66/107/43 61/109/43 62/110/43
f 62/110/44 63/111/44 64/113/44
f 62/112/45 68/114/45 66/118/45
f 63/111/46 65/116/46 67/117/46
f 64/113/47 67/117/47 68/114/47
o Cube.007
v -0.220565 -1.505027 0.160278
v -0.220565 -1.611909 0.160278
v 0.220565 -1.505027 0.160278
v 0.220565 -1.611909 0.160278
v -0.220565 -1.505027 0.198278
v -0.220565 -1.611909 0.198278
v 0.220565 -1.505027 0.198278
v 0.220565 -1.611909 0.198278
vt 0.625000 0.125000
vt 0.375000 0.125000
vt 0.375000 0.250000
vt 0.625000 0.250000
vt 0.375000 0.500000
vt 0.875000 0.500000
vt 0.625000 0.500000
vt 0.625000 0.625000
vt 0.125000 0.500000
vt 0.125000 0.625000
vt 0.375000 0.625000
vt 0.875000 0.625000
vn -1.0000 0.0000 0.0000
vn 0.0000 0.0000 -1.0000
vn 0.0000 -1.0000 0.0000
vn 0.0000 1.0000 0.0000
vn 1.0000 0.0000 0.0000
usemtl None
s off
f 74/119/48 73/120/48 69/121/48
f 70/122/49 69/121/49 71/123/49
f 70/124/50 72/125/50 76/126/50
f 71/123/51 69/127/51 73/128/51
f 72/125/52 71/123/52 75/129/52
f 74/119/48 69/121/48 70/122/48
f 70/122/49 71/123/49 72/125/49
f 70/124/50 76/126/50 74/130/50
f 71/123/51 73/128/51 75/129/51
f 72/125/52 75/129/52 76/126/52
o Cube.008
v 0.977715 -0.993140 0.218538
v 0.977715 -0.597521 0.218538
v 0.977715 -0.993140 0.048372
v 0.977715 -0.597521 0.048372
v 0.825435 -0.993140 0.218538
v 0.825435 -0.597521 0.218538
v 0.825435 -0.993140 0.048372
v 0.825435 -0.597521 0.048372
vt 0.625000 0.000000
vt 0.375000 0.000000
vt 0.375000 0.250000
vt 0.625000 0.250000
vt 0.375000 0.500000
vt 0.625000 0.500000
vt 0.375000 0.750000
vt 0.625000 0.750000
vt 0.375000 1.000000
vt 0.125000 0.500000
vt 0.125000 0.750000
vt 0.875000 0.500000
vt 0.625000 1.000000
vt 0.875000 0.750000
vn 1.0000 0.0000 0.0000
vn 0.0000 0.0000 -1.0000
vn -1.0000 0.0000 0.0000
vn 0.0000 0.0000 1.0000
vn 0.0000 -1.0000 0.0000
vn 0.0000 1.0000 0.0000
usemtl None
s off
f 78/131/53 77/132/53 79/133/53
f 80/134/54 79/133/54 83/135/54
f 84/136/55 83/135/55 81/137/55
f 82/138/56 81/137/56 77/139/56
f 83/135/57 79/140/57 77/141/57
f 80/142/58 84/136/58 82/138/58
f 78/131/53 79/133/53 80/134/53
f 80/134/54 83/135/54 84/136/54
f 84/136/55 81/137/55 82/138/55
f 82/138/56 77/139/56 78/143/56
f 83/135/57 77/141/57 81/137/57
f 80/142/58 82/138/58 78/144/58
o Cube.009
v -0.815846 0.604144 0.218538
v -0.815846 0.999763 0.218538
v -0.815846 0.604144 0.048372
v -0.815846 0.999763 0.048372
v -0.968126 0.604144 0.218538
v -0.968126 0.999763 0.218538
v -0.968126 0.604144 0.048372
v -0.968126 0.999763 0.048372
vt 0.625000 0.000000
vt 0.375000 0.000000
vt 0.375000 0.250000
vt 0.625000 0.250000
vt 0.375000 0.500000
vt 0.625000 0.500000
vt 0.375000 0.750000
vt 0.625000 0.750000
vt 0.375000 1.000000
vt 0.125000 0.500000
vt 0.125000 0.750000
vt 0.875000 0.500000
vt 0.625000 1.000000
vt 0.875000 0.750000
vn 1.0000 0.0000 0.0000
vn 0.0000 0.0000 -1.0000
vn -1.0000 0.0000 0.0000
vn 0.0000 0.0000 1.0000
vn 0.0000 -1.0000 0.0000
vn 0.0000 1.0000 0.0000
usemtl None
s off
f 86/145/59 85/146/59 87/147/59
f 88/148/60 87/147/60 91/149/60
f 92/150/61 91/149/61 89/151/61
f 90/152/62 89/151/62 85/153/62
f 91/149/63 87/154/63 85/155/63
f 88/156/64 92/150/64 90/152/64
f 86/145/59 87/147/59 88/148/59
f 88/148/60 91/149/60 92/150/60
f 92/150/61 89/151/61 90/152/61
f 90/152/62 85/153/62 86/157/62
f 91/149/63 85/155/63 89/151/63
f 88/156/64 90/152/64 86/158/64
o Cube.010
v 0.978455 0.617595 0.218538
v 0.978455 1.013215 0.218538
v 0.978455 0.617595 0.048372
v 0.978455 1.013215 0.048372
v 0.826174 0.617595 0.218538
v 0.826174 1.013215 0.218538
v 0.826174 0.617595 0.048372
v 0.826174 1.013215 0.048372
vt 0.625000 0.000000
vt 0.375000 0.000000
vt 0.375000 0.250000
vt 0.625000 0.250000
vt 0.375000 0.500000
vt 0.625000 0.500000
vt 0.375000 0.750000
vt 0.625000 0.750000
vt 0.375000 1.000000
vt 0.125000 0.500000
vt 0.125000 0.750000
vt 0.875000 0.500000
vt 0.625000 1.000000
vt 0.875000 0.750000
vn 1.0000 0.0000 0.0000
vn 0.0000 0.0000 -1.0000
vn -1.0000 0.0000 0.0000
vn 0.0000 0.0000 1.0000
vn 0.0000 -1.0000 0.0000
vn 0.0000 1.0000 0.0000
usemtl None
s off
f 94/159/65 93/160/65 95/161/65
f 96/162/66 95/161/66 99/163/66
f 100/164/67 99/163/67 97/165/67
f 98/166/68 97/165/68 93/167/68
f 99/163/69 95/168/69 93/169/69
f 96/170/70 100/164/70 98/166/70
f 94/159/65 95/161/65 96/162/65
f 96/162/66 99/163/66 100/164/66
f 100/164/67 97/165/67 98/166/67
f 98/166/68 93/167/68 94/171/68
f 99/163/69 93/169/69 97/165/69
f 96/170/70 98/166/70 94/172/70
o Cube.011
v -0.815846 -0.993140 0.218538
v -0.815846 -0.597521 0.218538
v -0.815846 -0.993140 0.048372
v -0.815846 -0.597521 0.048372
v -0.968126 -0.993140 0.218538
v -0.968126 -0.597521 0.218538
v -0.968126 -0.993140 0.048372
v -0.968126 -0.597521 0.048372
vt 0.625000 0.000000
vt 0.375000 0.000000
vt 0.375000 0.250000
vt 0.625000 0.250000
vt 0.375000 0.500000
vt 0.625000 0.500000
vt 0.375000 0.750000
vt 0.625000 0.750000
vt 0.375000 1.000000
vt 0.125000 0.500000
vt 0.125000 0.750000
vt 0.875000 0.500000
vt 0.625000 1.000000
vt 0.875000 0.750000
vn 1.0000 0.0000 0.0000
vn 0.0000 0.0000 -1.0000
vn -1.0000 0.0000 0.0000
vn 0.0000 0.0000 1.0000
vn 0.0000 -1.0000 0.0000
vn 0.0000 1.0000 0.0000
usemtl None
s off
f 102/173/71 101/174/71 103/175/71
f 104/176/72 103/175/72 107/177/72
f 108/178/73 107/177/73 105/179/73
f 106/180/74 105/179/74 101/181/74
f 107/177/75 103/182/75 101/183/75
f 104/184/76 108/178/76 106/180/76
f 102/173/71 103/175/71 104/176/71
f 104/176/72 107/177/72 108/178/72
f 108/178/73 105/179/73 106/180/73
f 106/180/74 101/181/74 102/185/74
f 107/177/75 101/183/75 105/179/75
f 104/184/76 106/180/76 102/186/76
o Cube.012
v -9.987025 -1.001954 0.305683
v -9.987025 0.998046 0.305683
v -9.987025 -1.001954 -1.694317
v -9.987025 0.998046 -1.694317
v -7.987025 -1.001954 0.305683
v -7.987025 0.998046 0.305683
v -7.987025 -1.001954 -1.694317
v -7.987025 0.998046 -1.694317
vt 0.625000 0.000000
vt 0.375000 0.250000
vt 0.375000 0.000000
vt 0.625000 0.250000
vt 0.375000 0.500000
vt 0.625000 0.500000
vt 0.375000 0.750000
vt 0.625000 0.750000
vt 0.375000 1.000000
vt 0.125000 0.750000
vt 0.125000 0.500000
vt 0.875000 0.500000
vt 0.625000 1.000000
vt 0.875000 0.750000
vn -1.0000 0.0000 0.0000
vn 0.0000 0.0000 -1.0000
vn 1.0000 0.0000 0.0000
vn 0.0000 0.0000 1.0000
vn 0.0000 -1.0000 0.0000
vn 0.0000 1.0000 0.0000
usemtl None
s off
f 110/187/77 111/188/77 109/189/77
f 112/190/78 115/191/78 111/188/78
f 116/192/79 113/193/79 115/191/79
f 114/194/80 109/195/80 113/193/80
f 115/191/81 109/196/81 111/197/81
f 112/198/82 114/194/82 116/192/82
f 110/187/77 112/190/77 111/188/77
f 112/190/78 116/192/78 115/191/78
f 116/192/79 114/194/79 113/193/79
f 114/194/80 110/199/80 109/195/80
f 115/191/81 113/193/81 109/196/81
f 112/198/82 110/200/82 114/194/82
